<svg width="800" height="800" viewBox="0 0 800 800" fill="none" xmlns="http://www.w3.org/2000/svg">
<path d="M615 625H637.5C700 625 750 575 750 512.5C750 455 705 407.5 650 402.5V375C650 360 640 350 625 350H175C160 350 150 360 150 375V500C150 582.5 190 655 250 700H125C110 700 100 710 100 725C100 740 110 750 125 750H675C690 750 700 740 700 725C700 710 690 700 675 700H550C577.5 680 600 655 615 625ZM700 512.5C700 547.5 672.5 575 637.5 575C645 552.5 650 525 650 500V452.5C677.5 457.5 700 482.5 700 512.5ZM600 400V460C572.5 472.5 497.5 495 410 452.5C322.5 410 245 432.5 200 455V400H600ZM200 512.5C225 495 300 455 387.5 497.5C432.5 520 475 525 512.5 525C547.5 525 577.5 517.5 600 512.5C597.5 537.5 592.5 562.5 582.5 582.5C580 585 577.5 590 577.5 592.5C542.5 655 477.5 697.5 402.5 697.5C295 700 207.5 617.5 200 512.5Z" fill="#84FF5B"/>
<path d="M275 275H350C357.5 275 362.5 280 362.5 287.5V300C362.5 315 372.5 325 387.5 325C402.5 325 412.5 315 412.5 300V287.5C412.5 252.5 385 225 350 225H275C267.5 225 262.5 220 262.5 212.5C262.5 205 267.5 200 275 200H512.5C555 200 587.5 167.5 587.5 125C587.5 82.5 555 50 512.5 50H262.5C247.5 50 237.5 60 237.5 75C237.5 90 247.5 100 262.5 100H512.5C527.5 100 537.5 110 537.5 125C537.5 140 527.5 150 512.5 150H275C240 150 212.5 177.5 212.5 212.5C212.5 247.5 240 275 275 275Z" fill="#84FF5B"/>
</svg>
